# xmcd
#
# Track frame offsets:
#	150
#	26317
#	48454
#	82915
#	105564
#	144517
#
# Disc length: 3830 seconds
#
# Revision: 1
# Processed by: cddbd v1.5.2PL0 Copyright (c) Steve Scherf et al.
# Submitted via: EasyCDDAExtractor 11.0.2.1
#
DISCID=3f0ef406
DTITLE=정원영밴드 - 정원영밴드 EP
DYEAR=2005
DGENRE=Other
TTITLE0=YK259 Zipper
TTITLE1=붕붕붕
TTITLE2=Thanks #6(선물)
TTITLE3=내겐 천사 같은
TTITLE4=Thanks #10(사랑노래)
TTITLE5=µ¿¿µ»ó ÀÎÅÍºä µî
EXTD=YEAR: 2005
EXTT0=
EXTT1=
EXTT2=
EXTT3=
EXTT4=
EXTT5=
PLAYORDER=
